<!DOCTYPE svg PUBLIC "-//W3C//DTD SVG 20010904//EN" "http://www.w3.org/TR/2001/REC-SVG-20010904/DTD/svg10.dtd">
<svg version="1.0" xmlns="http://www.w3.org/2000/svg" width="512px" height="512px" viewBox="0 0 5120 5120" preserveAspectRatio="xMidYMid meet">
<g id="layer101" fill="#546e7a" stroke="none">
 <path d="M2280 5109 c-374 -38 -768 -177 -1102 -389 -151 -96 -260 -183 -397 -315 -411 -398 -662 -882 -758 -1460 -28 -170 -26 -623 4 -795 75 -426 234 -799 486 -1137 101 -134 359 -394 491 -492 373 -279 804 -454 1251 -507 153 -18 444 -18 605 0 910 103 1716 710 2065 1556 96 231 150 438 181 690 22 184 15 542 -15 715 -50 293 -153 589 -288 830 -412 733 -1154 1223 -1977 1304 -126 13 -421 12 -546 0z"/>
 </g>
<g id="layer102" fill="#ffffff" stroke="none">
 <path d="M1355 3860 c-92 -13 -168 -69 -213 -154 l-27 -51 0 -1095 0 -1095 23 -42 c35 -66 79 -110 140 -140 l57 -28 1225 0 1225 0 57 28 c69 34 121 91 148 165 20 53 20 70 18 1130 l-3 1077 -23 42 c-35 66 -79 110 -140 140 l-57 28 -1190 1 c-655 1 -1213 -2 -1240 -6z m2365 -1155 l0 -865 -1160 0 -1160 0 0 865 0 865 1160 0 1160 0 0 -865z"/>
 <path d="M1640 3282 c0 -4 128 -135 285 -292 l285 -285 -285 -285 c-157 -157 -285 -288 -285 -293 0 -4 89 -7 197 -7 l198 0 251 253 c268 269 283 289 269 365 -6 32 -45 75 -263 295 l-256 257 -198 0 c-109 0 -198 -3 -198 -8z"/>
 <path d="M2704 3277 c-2 -7 -3 -74 -2 -148 l3 -134 363 -3 362 -2 0 150 0 150 -360 0 c-287 0 -362 -3 -366 -13z"/>
 </g>

</svg>